<svg width="33" height="33" viewBox="0 0 33 33" fill="none" xmlns="http://www.w3.org/2000/svg">
<mask id="path-1-inside-1" fill="white">
<path fill-rule="evenodd" clip-rule="evenodd" d="M0 9C0 4.02944 4.02944 0 9 0H24C28.9706 0 33 4.02944 33 9V24C33 28.9706 28.9706 33 24 33H9C4.02944 33 0 28.9706 0 24V9ZM11 16.5C11 13.4624 13.4624 11 16.5 11C19.5376 11 22 13.4624 22 16.5C22 19.5376 19.5376 22 16.5 22C13.4624 22 11 19.5376 11 16.5ZM24 6C23.4477 6 23 6.44772 23 7C23 7.55228 23.4477 8 24 8C24.5523 8 25 7.55228 25 7C25 6.44772 24.5523 6 24 6Z"/>
</mask>
<path d="M9 -2C2.92487 -2 -2 2.92487 -2 9H2C2 5.13401 5.13401 2 9 2V-2ZM24 -2H9V2H24V-2ZM35 9C35 2.92487 30.0751 -2 24 -2V2C27.866 2 31 5.13401 31 9H35ZM35 24V9H31V24H35ZM24 35C30.0751 35 35 30.0751 35 24H31C31 27.866 27.866 31 24 31V35ZM9 35H24V31H9V35ZM-2 24C-2 30.0751 2.92487 35 9 35V31C5.13401 31 2 27.866 2 24H-2ZM-2 9V24H2V9H-2ZM16.5 9C12.3579 9 9 12.3579 9 16.5H13C13 14.567 14.567 13 16.5 13V9ZM24 16.5C24 12.3579 20.6421 9 16.5 9V13C18.433 13 20 14.567 20 16.5H24ZM16.5 24C20.6421 24 24 20.6421 24 16.5H20C20 18.433 18.433 20 16.5 20V24ZM9 16.5C9 20.6421 12.3579 24 16.5 24V20C14.567 20 13 18.433 13 16.5H9ZM25 7C25 7.55229 24.5523 8 24 8V4C22.3431 4 21 5.34315 21 7H25ZM24 6C24.5523 6 25 6.44771 25 7H21C21 8.65685 22.3431 10 24 10V6ZM23 7C23 6.44771 23.4477 6 24 6V10C25.6569 10 27 8.65685 27 7H23ZM24 8C23.4477 8 23 7.55229 23 7H27C27 5.34315 25.6569 4 24 4V8Z" fill="#777777" mask="url(#path-1-inside-1)"/>
</svg>
