<svg width="21" height="24" viewBox="0 0 21 24" fill="none" xmlns="http://www.w3.org/2000/svg">
<path fill-rule="evenodd" clip-rule="evenodd" d="M19 10C19 14.9706 14.9706 19 10 19C5.02944 19 1 14.9706 1 10C1 5.02944 5.02944 1 10 1C14.9706 1 19 5.02944 19 10ZM15.5932 18.2907C13.9968 19.3698 12.072 20 10 20C4.47715 20 0 15.5228 0 10C0 4.47715 4.47715 0 10 0C15.5228 0 20 4.47715 20 10C20 13.0918 18.5968 15.856 16.3925 17.6903L20.3904 22.6877C20.5629 22.9033 20.528 23.2179 20.3123 23.3904C20.0967 23.5629 19.7821 23.528 19.6096 23.3123L15.6096 18.3123C15.6039 18.3052 15.5984 18.298 15.5932 18.2907Z" fill="#807D7A"/>
</svg>
