<svg width="34" height="33" viewBox="0 0 34 33" fill="none" xmlns="http://www.w3.org/2000/svg">
<path fill-rule="evenodd" clip-rule="evenodd" d="M22 17.5C22 19.9853 19.9853 22 17.5 22C15.0147 22 13 19.9853 13 17.5C13 15.0147 15.0147 13 17.5 13C19.9853 13 22 15.0147 22 17.5ZM21.329 23.9503C20.2082 24.6171 18.8988 25 17.5 25C13.3579 25 10 21.6421 10 17.5C10 13.3579 13.3579 10 17.5 10C21.6421 10 25 13.3579 25 17.5C25 19.1574 24.4624 20.6893 23.552 21.9307L27.5607 25.9393C28.1464 26.5251 28.1464 27.4749 27.5607 28.0607C26.9749 28.6464 26.0251 28.6464 25.4393 28.0607L21.329 23.9503Z" fill="#FAFAFA"/>
</svg>
